<?xml version="1.0" encoding="utf-8"?>
<!-- Generator: Adobe Illustrator 14.0.0, SVG Export Plug-In . SVG Version: 6.00 Build 43363)  -->
<!DOCTYPE svg PUBLIC "-//W3C//DTD SVG 1.1//EN" "http://www.w3.org/Graphics/SVG/1.1/DTD/svg11.dtd">
<svg version="1.1" id="hardware-15" xmlns="http://www.w3.org/2000/svg" xmlns:xlink="http://www.w3.org/1999/xlink" x="0px"
	 y="0px" width="15px" height="15px" viewBox="0 0 15 15" enable-background="new 0 0 15 15" xml:space="preserve">
<path display="none" d="M15,7.5c0,4.144-3.358,7.5-7.5,7.5l0,0C3.358,15,0,11.644,0,7.5l0,0C0,3.358,3.358,0,7.5,0l0,0
	C11.642,0,15,3.358,15,7.5L15,7.5z"/>
<path stroke="#FFFFFF" stroke-width="0.75" d="M13.792,3.262c0,0-1.677,1.675-2.116,2.121c-0.085,0.086-0.169,0.113-0.282,0.096
	c-0.147-0.022-0.298-0.038-0.446-0.056c-0.407-0.048-0.814-0.097-1.229-0.146c-0.07-0.592-0.141-1.172-0.201-1.754
	C9.512,3.469,9.551,3.395,9.593,3.352c0.507-0.513,1.926-1.929,2.134-2.136c-0.451-0.213-1.225-0.297-1.801-0.203
	c-2.18,0.354-3.511,2.534-2.82,4.625C7.143,5.753,7.119,5.82,7.038,5.902c-1.849,1.843-3.694,3.69-5.54,5.536
	c-0.062,0.062-0.123,0.124-0.178,0.191c-0.526,0.646-0.388,1.626,0.297,2.102c0.604,0.42,1.366,0.345,1.905-0.194
	c1.853-1.853,3.706-3.705,5.555-5.56c0.093-0.092,0.166-0.124,0.3-0.078c0.619,0.211,1.253,0.235,1.888,0.088
	c1.939-0.448,3.126-2.374,2.656-4.303C13.89,3.553,13.843,3.424,13.792,3.262z"/>
<path d="M13.792,3.262c0,0-1.677,1.675-2.116,2.121c-0.085,0.086-0.169,0.113-0.282,0.096c-0.147-0.022-0.298-0.038-0.446-0.056
	c-0.407-0.048-0.814-0.097-1.229-0.146c-0.07-0.592-0.141-1.172-0.201-1.754C9.512,3.469,9.551,3.395,9.593,3.352
	c0.507-0.513,1.926-1.929,2.134-2.136c-0.451-0.213-1.225-0.297-1.801-0.203c-2.18,0.354-3.511,2.534-2.82,4.625
	C7.143,5.753,7.119,5.82,7.038,5.902c-1.849,1.843-3.694,3.69-5.54,5.536c-0.062,0.062-0.123,0.124-0.178,0.191
	c-0.526,0.646-0.388,1.626,0.297,2.102c0.604,0.42,1.366,0.345,1.905-0.194c1.853-1.853,3.706-3.705,5.555-5.56
	c0.093-0.092,0.166-0.124,0.3-0.078c0.619,0.211,1.253,0.235,1.888,0.088c1.939-0.448,3.126-2.374,2.656-4.303
	C13.89,3.553,13.843,3.424,13.792,3.262z"/>
</svg>
