<?xml version="1.0" encoding="utf-8"?>
<!-- Generator: Adobe Illustrator 14.0.0, SVG Export Plug-In . SVG Version: 6.00 Build 43363)  -->
<!DOCTYPE svg PUBLIC "-//W3C//DTD SVG 1.1//EN" "http://www.w3.org/Graphics/SVG/1.1/DTD/svg11.dtd">
<svg version="1.1" id="bicycle-15" xmlns="http://www.w3.org/2000/svg" xmlns:xlink="http://www.w3.org/1999/xlink" x="0px" y="0px"
	 width="17px" height="15px" viewBox="-1252.5 835.5 17 15" enable-background="new -1252.5 835.5 17 15" xml:space="preserve">
<g id="background" display="none">
	<rect x="-1251.375" y="835.625" display="inline" fill="#FFFFFF" width="14.75" height="14.75"/>
	<path display="inline" d="M-1236.75,835.75v14.5h-14.5v-14.5H-1236.75 M-1236.5,835.5h-15v15h15V835.5L-1236.5,835.5z"/>
</g>
<path id="path4668" d="M-1243.987,836.792c-0.767-0.011-0.767,1.146,0,1.135h1.702v1.437l-3.18,2.648l-1.105-2.95h0.314
	c0.767,0.011,0.767-1.146,0-1.135h-2.27c-0.766-0.012-0.766,1.146,0,1.135h0.74l1.012,2.695c-0.531-0.263-1.12-0.426-1.752-0.426
	c-2.186,0-3.97,1.785-3.97,3.971c0,2.187,1.785,3.971,3.97,3.971c2.187,0,3.972-1.784,3.972-3.971c0-0.761-0.228-1.465-0.601-2.07
	l3.2-2.666l0.525,1.316c-1.184,0.69-1.99,1.958-1.99,3.42c0,2.187,1.784,3.971,3.972,3.971c2.187,0,3.971-1.784,3.971-3.971
	c0-2.186-1.784-3.971-3.971-3.971c-0.321,0-0.63,0.049-0.929,0.122l-0.774-1.935v-2.158c0-0.313-0.254-0.567-0.566-0.567H-1243.987z
	 M-1248.526,842.465c0.672,0,1.28,0.241,1.766,0.627l-2.128,1.774c-0.581,0.484,0.146,1.355,0.726,0.872l2.127-1.773
	c0.213,0.399,0.346,0.851,0.346,1.337c0,1.574-1.263,2.836-2.837,2.836c-1.573,0-2.836-1.262-2.836-2.836
	C-1251.362,843.729-1250.1,842.465-1248.526,842.465L-1248.526,842.465z M-1239.448,842.465c1.573,0,2.836,1.264,2.836,2.837
	c0,1.574-1.263,2.836-2.836,2.836c-1.574,0-2.837-1.262-2.837-2.836c0-0.995,0.508-1.863,1.276-2.369l1.033,2.581
	c0.28,0.705,1.341,0.282,1.055-0.423l-1.031-2.576C-1239.787,842.488-1239.622,842.465-1239.448,842.465L-1239.448,842.465z"/>
</svg>
