<?xml version="1.0" encoding="utf-8"?>
<!-- Generator: Adobe Illustrator 14.0.0, SVG Export Plug-In . SVG Version: 6.00 Build 43363)  -->
<!DOCTYPE svg PUBLIC "-//W3C//DTD SVG 1.1//EN" "http://www.w3.org/Graphics/SVG/1.1/DTD/svg11.dtd">
<svg version="1.1" id="bicycle-15" xmlns="http://www.w3.org/2000/svg" xmlns:xlink="http://www.w3.org/1999/xlink" x="0px" y="0px"
	 width="15px" height="15px" viewBox="0 0 15 15" enable-background="new 0 0 15 15" xml:space="preserve">
<g id="background">
	<rect x="0.125" y="0.125" fill="#FFFFFF" width="14.75" height="14.75"/>
	<path d="M14.75,0.25v14.5H0.25V0.25H14.75 M15,0H0v15h15V0L15,0z"/>
</g>
<path id="path4668" d="M7.5,2c-0.676-0.01-0.676,1.01,0,1H9v1.266L6.197,6.6L5.223,4H5.5c0.676,0.01,0.676-1.01,0-1h-2
	c-0.676-0.01-0.676,1.01,0,1h0.652l0.891,2.375C4.575,6.143,4.056,6,3.5,6C1.573,6,0,7.573,0,9.5C0,11.428,1.573,13,3.5,13
	S7,11.428,7,9.5c0-0.67-0.2-1.291-0.529-1.824l2.82-2.35l0.463,1.16C8.711,7.094,8,8.211,8,9.5c0,1.928,1.572,3.5,3.5,3.5
	S15,11.428,15,9.5C15,7.573,13.428,6,11.5,6c-0.283,0-0.555,0.043-0.818,0.107L10,4.402V2.5C10,2.224,9.776,2,9.5,2H7.5z M3.5,7
	c0.592,0,1.127,0.212,1.555,0.553L3.18,9.115C2.669,9.543,3.308,10.31,3.82,9.885l1.875-1.563C5.883,8.674,6,9.071,6,9.5
	C6,10.887,4.887,12,3.5,12S1,10.887,1,9.5S2.113,7,3.5,7L3.5,7z M11.5,7C12.887,7,14,8.113,14,9.5S12.887,12,11.5,12S9,10.887,9,9.5
	c0-0.877,0.447-1.642,1.125-2.088l0.91,2.273c0.246,0.623,1.181,0.25,0.93-0.371l-0.908-2.27C11.201,7.02,11.348,7,11.5,7L11.5,7z"
	/>
</svg>
